<svg xmlns="http://www.w3.org/2000/svg" viewBox="0 0 30 30" fill="#5B5B5B"><path d="M10.567 12.576l.67-.67-.778-4.936 2.246-2.246a1.01 1.01 0 10-1.429-1.429L9.03 5.541l-4.936-.779-.67.67L7.061 7.51 5.327 9.244l-1.811-.453L3 9.307 6.693 13l.516-.516-.453-1.811L8.489 8.94l2.078 3.636z"/><path d="M15 3c-.062 0-.121.008-.182.009.228.647.228 1.353.001 2 .06-.001.12-.009.181-.009 2.105 0 4.057.657 5.67 1.772L20 7v1h-1l-1 1v2l2-1 3 1-1 2-2-1h-2l-2 2v2l2 2h2l1 2-2.105 4.21a9.953 9.953 0 01-4.982.728l-1.948-1.902L12 19l-3-3H6l-.758 1.163A10.02 10.02 0 015 15c0-.278.019-.551.042-.823l-1.755-1.755A11.904 11.904 0 003 15c0 6.617 5.383 12 12 12s12-5.383 12-12S21.617 3 15 3z"/></svg>