<svg width="34" height="30" fill="none" xmlns="http://www.w3.org/2000/svg"><path fill-rule="evenodd" clip-rule="evenodd" d="M4.86 2.936h24.242c1.217 0 2.204.987 2.204 2.204v19.834a2.204 2.204 0 01-2.204 2.204H4.86a2.204 2.204 0 01-2.204-2.204V5.14c0-1.217.987-2.204 2.204-2.204zM.452 5.14A4.408 4.408 0 014.86.732h24.242A4.408 4.408 0 0133.51 5.14v19.834a4.408 4.408 0 01-4.408 4.408H4.86a4.408 4.408 0 01-4.408-4.408V5.14zm10.824 3.037a.588.588 0 01.757-.063l11.64 6.402a.587.587 0 01.017 1.075l-11.656 6.41-.001-.002a.588.588 0 01-.929-.477V8.593c0-.156.062-.306.172-.416z" fill="#fff"/></svg>