<svg xmlns="http://www.w3.org/2000/svg" viewBox="0 0 32 32" fill="#5B5B5B"><path fill="none" stroke="#5B5B5B" stroke-width="2" d="M16 12a4 4 0 100 8 4 4 0 100-8z"/><path fill="none" stroke="#5B5B5B" stroke-width="2" d="M25 16c0-.677-.081-1.335-.223-1.97l2.615-2.298-2-3.464-3.304 1.118a8.984 8.984 0 00-3.407-1.979L18 4h-4l-.681 3.406a8.976 8.976 0 00-3.407 1.979L6.608 8.268l-2 3.464 2.615 2.298C7.081 14.665 7 15.323 7 16s.081 1.335.223 1.97l-2.615 2.298 2 3.464 3.304-1.118a8.984 8.984 0 003.407 1.979L14 28h4l.681-3.406a8.976 8.976 0 003.407-1.979l3.304 1.118 2-3.464-2.615-2.298A9.028 9.028 0 0025 16z"/></svg>